<mxfile host="65bd71144e">
    <diagram id="MMKozwo2H6vT3YA6cxRi" name="PÃ¡gina-1">
        <mxGraphModel dx="3275" dy="3055" grid="1" gridSize="10" guides="1" tooltips="1" connect="1" arrows="1" fold="1" page="1" pageScale="1" pageWidth="827" pageHeight="1169" math="0" shadow="0">
            <root>
                <mxCell id="0"/>
                <mxCell id="1" parent="0"/>
                <mxCell id="2" value="&lt;font style=&quot;font-size: 32px;&quot;&gt;Diagrama ER: heimblog&lt;/font&gt;" style="text;html=1;strokeColor=#3700CC;fillColor=#6a00ff;align=center;verticalAlign=middle;whiteSpace=wrap;rounded=0;fontColor=#ffffff;" vertex="1" parent="1">
                    <mxGeometry x="224" y="295" width="380" height="100" as="geometry"/>
                </mxCell>
                <mxCell id="11" value="nombre_libro" style="whiteSpace=wrap;html=1;strokeColor=default;fontSize=18;" vertex="1" parent="1">
                    <mxGeometry x="354" y="475" width="120" height="40" as="geometry"/>
                </mxCell>
                <mxCell id="14" value="autor" style="whiteSpace=wrap;html=1;strokeColor=default;fontSize=18;" vertex="1" parent="1">
                    <mxGeometry x="354" y="535" width="120" height="40" as="geometry"/>
                </mxCell>
                <mxCell id="15" value="editorial" style="whiteSpace=wrap;html=1;strokeColor=default;fontSize=18;" vertex="1" parent="1">
                    <mxGeometry x="354" y="595" width="120" height="40" as="geometry"/>
                </mxCell>
                <mxCell id="16" value="genero" style="whiteSpace=wrap;html=1;strokeColor=default;fontSize=18;" vertex="1" parent="1">
                    <mxGeometry x="354" y="655" width="120" height="40" as="geometry"/>
                </mxCell>
                <mxCell id="17" value="num_paginas" style="whiteSpace=wrap;html=1;strokeColor=default;fontSize=18;" vertex="1" parent="1">
                    <mxGeometry x="354" y="715" width="120" height="40" as="geometry"/>
                </mxCell>
                <mxCell id="18" value="tipo_libro" style="whiteSpace=wrap;html=1;strokeColor=default;fontSize=18;" vertex="1" parent="1">
                    <mxGeometry x="354" y="775" width="120" height="40" as="geometry"/>
                </mxCell>
                <mxCell id="19" value="sinopsis_libro" style="whiteSpace=wrap;html=1;strokeColor=default;fontSize=18;" vertex="1" parent="1">
                    <mxGeometry x="354" y="835" width="120" height="40" as="geometry"/>
                </mxCell>
            </root>
        </mxGraphModel>
    </diagram>
</mxfile>